#!OML:ASF F:\VICON\USERDATA\INSTALL\rory3\rory3.ASF
:FULLY-SPECIFIED
:DEGREES
239
root 2.75476 17.6928 -0.0591697 -8.13338 -44.8499 10.4393
lowerback 10.2956 -0.0424664 -5.83655
upperback 1.63855 -0.750931 -0.481145
thorax -3.99562 -0.308023 2.88719
lowerneck -21.5005 -4.29819 -9.83415
upperneck 22.9631 -4.32334 5.70397
head 11.3869 -2.13116 3.03715
rclavicle 5.47652e-014 1.11319e-014
rhumerus -34.918 -8.88221 -80.6268
rradius 34.2316
rwrist 5.84114
rhand -14.5831 9.79906
rfingers 7.12502
rthumb 11.5668 -19.8617
lclavicle 5.47652e-014 1.11319e-014
lhumerus -26.3298 -2.65483 84.6571
lradius 38.7426
lwrist -7.59132
lhand -16.1092 25.272
lfingers 7.12502
lthumb 10.0948 55.0099
rfemur -29.607 -0.779197 12.9617
rtibia 29.6479
rfoot -5.58716 -2.48082
rtoes -3.20919
lfemur 25.296 -6.42382 -31.6874
ltibia 1.90833e-014
lfoot -1.11967 -7.50155
ltoes -8.6948
240
root 2.60967 17.7096 0.0587632 -7.81233 -45.1529 9.86178
lowerback 10.4077 -0.0442352 -5.36216
upperback 1.49675 -0.701844 -0.295336
thorax -4.21443 -0.279308 2.8103
lowerneck -21.618 -4.19321 -9.74301
upperneck 23.314 -4.15216 5.49486
head 11.5199 -2.07707 2.9767
rclavicle -5.42682e-014 -7.95139e-016
rhumerus -35.3154 -9.28399 -80.2353
rradius 33.8204
rwrist 6.3319
rhand -14.276 10.0249
rfingers 7.12502
rthumb 11.863 -19.619
lclavicle -5.42682e-014 -7.95139e-016
lhumerus -27.027 -1.97952 84.789
lradius 38.7796
lwrist -7.96226
lhand -16.5173 25.4649
lfingers 7.12502
lthumb 9.70109 55.2215
rfemur -29.3392 -0.51391 13.4761
rtibia 30.1859
rfoot -5.54808 -2.40783
rtoes -3.41671
lfemur 25.9369 -6.31508 -31.2721
ltibia -6.36111e-015
lfoot 0.0391656 -7.7662
ltoes -13.0983
241
root 2.46956 17.7269 0.16543 -7.31981 -45.3546 9.09841
lowerback 10.6533 -0.134603 -4.85463
upperback 1.31592 -0.769145 -0.0430531
thorax -4.53793 -0.305891 2.80232
lowerneck -21.6871 -4.04395 -9.75215
upperneck 23.6227 -3.91822 5.40041
head 11.6281 -1.99005 2.98628
rclavicle -1.95803e-014 4.77083e-015
rhumerus -35.6023 -9.1983 -80.022
rradius 33.372
rwrist 6.26468
rhand -14.1251 10.1199
rfingers 7.12502
rthumb 12.0085 -19.5156
lclavicle -1.95803e-014 4.77083e-015
lhumerus -27.7829 -1.3554 84.9146
lradius 38.8974
lwrist -7.75827
lhand -17.0795 25.4898
lfingers 7.12502
lthumb 9.15861 55.2709
rfemur -29.0212 -0.55547 14.2395
rtibia 30.6413
rfoot -5.56642 -2.66946
rtoes -5.71836
lfemur 26.4655 -6.35921 -30.6311
ltibia -1.08139e-013
lfoot 1.72648 -8.157
ltoes -13.2411
242
root 2.32822 17.7474 0.27611 -6.88651 -45.6283 8.36401
lowerback 10.8453 -0.147197 -4.37924
upperback 1.21892 -0.727445 0.226067
thorax -4.75236 -0.284049 2.81371
lowerneck -21.8015 -3.97989 -9.84955
upperneck 23.7995 -3.77063 5.33919
head 11.7062 -1.94256 3.00641
rclavicle -4.22417e-014 1.43125e-014
rhumerus -35.7221 -9.58251 -79.6335
rradius 32.7493
rwrist 6.53723
rhand -14.2907 10.0991
rfingers 7.12502
rthumb 11.8488 -19.5457
lclavicle -4.22417e-014 1.43125e-014
lhumerus -28.4156 -0.776033 85.1094
lradius 38.8265
lwrist -7.58284
lhand -17.2862 25.0777
lfingers 7.12502
lthumb 8.95913 54.8675
rfemur -28.5765 -0.789703 15.0568
rtibia 30.9892
rfoot -4.6313 -1.72168
rtoes -0.803009
lfemur 26.99 -6.32405 -29.9943
ltibia 3.18055e-014
lfoot 3.84058 -8.45944
ltoes -11.8445
243
root 2.18277 17.7721 0.388669 -6.49469 -45.9276 7.70474
lowerback 10.8791 -0.101158 -3.91011
upperback 1.18827 -0.60146 0.426724
thorax -4.81593 -0.226844 2.74148
lowerneck -21.8635 -3.92748 -9.62738
upperneck 23.8221 -3.66932 4.99313
head 11.706 -1.92097 2.85552
rclavicle -1.58034e-014 -4.77083e-015
rhumerus -35.8878 -10.4042 -79.1548
rradius 32.1944
rwrist 7.04003
rhand -14.4315 9.84358
rfingers 7.12502
rthumb 11.7131 -19.809
lclavicle -1.58034e-014 -4.77083e-015
lhumerus -28.8714 -0.251053 85.2371
lradius 38.5775
lwrist -7.62485
lhand -17.1157 24.9278
lfingers 7.12502
lthumb 9.1237 54.7104
rfemur -28.0636 -0.911679 15.7795
rtibia 31.2808
rfoot -4.50139 -1.31422
rtoes 2.25733
lfemur 23.897 -6.23207 -29.4601
ltibia 7.15164
lfoot 2.58697 -8.17709
ltoes -12.7987
244
root 2.03573 17.8017 0.49779 -6.24225 -46.1239 7.29116
lowerback 10.9244 -0.100677 -3.69149
upperback 1.14726 -0.568578 0.582059
thorax -4.88715 -0.211126 2.77695
lowerneck -21.8778 -3.92185 -9.44905
upperneck 23.6765 -3.6049 4.60235
head 11.6365 -1.92315 2.6869
rclavicle 2.96189e-014 1.27222e-014
rhumerus -36.0677 -10.8635 -78.8082
rradius 31.7477
rwrist 7.18161
rhand -14.379 9.63447
rfingers 7.12502
rthumb 11.7636 -20.0152
lclavicle 2.96189e-014 1.27222e-014
lhumerus -29.2313 0.213263 85.294
lradius 38.2439
lwrist -7.46263
lhand -16.9591 25.0549
lfingers 7.12502
lthumb 9.2748 54.8309
rfemur -27.5789 -0.872178 16.2798
rtibia 31.6213
rfoot -4.86498 -1.33831
rtoes 1.03003
lfemur 22.2518 -6.22542 -29.1116
ltibia 11.1694
lfoot 3.56523 -8.03801
ltoes -12.3531
245
root 1.88511 17.8238 0.606941 -6.2917 -46.2804 7.27243
lowerback 10.9807 -0.0868578 -3.76963
upperback 1.06914 -0.558467 0.657902
thorax -4.99992 -0.199902 2.90065
lowerneck -21.8858 -3.91935 -9.37177
upperneck 23.6672 -3.54815 4.32287
head 11.6234 -1.92679 2.57805
rclavicle 1.98785e-014 -1.74931e-014
rhumerus -36.3398 -11.2736 -78.4455
rradius 31.3334
rwrist 7.33198
rhand -14.4068 9.64037
rfingers 7.12502
rthumb 11.7368 -20.0108
lclavicle 1.98785e-014 -1.74931e-014
lhumerus -29.7601 0.720833 85.3393
lradius 37.9243
lwrist -7.43221
lhand -16.7653 25.0115
lfingers 7.12502
lthumb 9.46181 54.7791
rfemur -27.077 -0.745119 16.469
rtibia 31.9673
rfoot -5.18004 -1.29242
rtoes -0.46166
lfemur 21.0119 -6.14367 -29.0184
ltibia 14.373
lfoot 5.22438 -7.95836
ltoes -10.713
